<svg width="363" height="60" viewBox="0 0 363 60" fill="none" xmlns="http://www.w3.org/2000/svg">
<path d="M33.624 49.552C31.9173 49.936 30.168 50.192 28.376 50.32C26.6267 50.4907 24.8987 50.576 23.192 50.576C21.528 50.576 20.2267 50.5333 19.288 50.448C18.392 50.3627 17.1973 50.1493 15.704 49.808C14.2107 49.4667 12.8453 48.9973 11.608 48.4C10.3707 47.8027 9.048 46.928 7.64 45.776C6.27467 44.624 5.12267 43.2587 4.184 41.68C2.008 38.0107 0.92 33.2747 0.92 27.472C0.92 23.5893 1.51733 20.1547 2.712 17.168C3.94933 14.1813 5.42133 11.8773 7.128 10.256C8.87733 8.63466 10.8613 7.33333 13.08 6.352C16.664 4.73066 20.2693 3.92 23.896 3.92C29.1013 3.92 32.8347 4.34666 35.096 5.2C36.12 5.584 37.0373 6.18133 37.848 6.992C38.6587 7.80266 39.064 8.976 39.064 10.512C39.064 12.048 38.68 13.9893 37.912 16.336C37.1867 18.6827 36.12 19.856 34.712 19.856C34.2853 19.856 32.7067 19.5147 29.976 18.832C27.2453 18.1493 25.3893 17.808 24.408 17.808C22.9147 17.808 21.6347 18.64 20.568 20.304C19.544 21.968 19.032 24.336 19.032 27.408C19.032 30.48 19.48 32.8693 20.376 34.576C21.3147 36.2827 22.5307 37.136 24.024 37.136C25.0907 37.136 27.0107 36.7093 29.784 35.856C32.6 34.96 34.2427 34.512 34.712 34.512C36.0347 34.512 37.0587 35.728 37.784 38.16C38.552 40.592 38.936 42.5547 38.936 44.048C38.936 45.5413 38.4667 46.736 37.528 47.632C36.632 48.4853 35.3307 49.1253 33.624 49.552ZM55.4 50.576C51.5173 50.576 48.4667 49.6587 46.248 47.824C45.352 47.056 44.5627 45.9253 43.88 44.432C43.24 42.9387 42.92 41.1893 42.92 39.184C42.92 37.1787 43.3893 35.4293 44.328 33.936C45.3093 32.4427 46.4827 31.2907 47.848 30.48C49.2133 29.6693 50.8133 29.008 52.648 28.496C55.4213 27.7707 58.472 27.408 61.8 27.408H63.912C63.912 25.6587 63.3147 24.4213 62.12 23.696C61.608 23.3973 60.8187 23.248 59.752 23.248C58.728 23.248 57.4693 23.5253 55.976 24.08C54.5253 24.6347 53.3093 25.2107 52.328 25.808C51.3467 26.3627 50.6853 26.64 50.344 26.64C49.576 26.64 48.5307 25.6373 47.208 23.632C45.8853 21.584 45.224 19.728 45.224 18.064C45.224 17.5093 46.0133 16.784 47.592 15.888C49.1707 14.992 51.3893 14.1813 54.248 13.456C57.1493 12.688 59.9653 12.304 62.696 12.304C65.4267 12.304 67.7733 12.5387 69.736 13.008C71.7413 13.4347 73.3627 13.968 74.6 14.608C75.88 15.248 76.9467 16.1013 77.8 17.168C78.696 18.2347 79.3573 19.1947 79.784 20.048C80.2533 20.9013 80.5947 22.0107 80.808 23.376C81.1067 24.9547 81.256 26.896 81.256 29.2V48.464C81.256 48.9333 80.104 49.3173 77.8 49.616C75.5387 49.872 73.2773 50 71.016 50C68.7973 50 67.3467 49.936 66.664 49.808C66.024 49.68 65.64 49.5307 65.512 49.36C65.384 49.1893 65.2773 48.8907 65.192 48.464L64.68 44.816H64.168C63.1013 48.656 60.1787 50.576 55.4 50.576ZM63.976 39.952V32.464C62.8667 32.464 61.9707 32.9333 61.288 33.872C60.6053 34.8107 60.264 35.8773 60.264 37.072C60.264 39.888 60.904 41.296 62.184 41.296C62.7387 41.296 63.1653 41.168 63.464 40.912C63.8053 40.6133 63.976 40.2933 63.976 39.952ZM110.892 49.424C110.124 50.1493 108.375 50.512 105.644 50.512C102.913 50.512 100.652 50.3413 98.86 50C97.068 49.616 95.3613 48.8907 93.74 47.824C90.6253 45.7333 89.068 41.3813 89.068 34.768V24.784H85.868C85.3987 24.784 84.9933 24.2933 84.652 23.312C84.3107 22.3307 84.14 20.9867 84.14 19.28C84.14 17.5733 84.396 16.08 84.908 14.8C85.4627 13.4773 86.1667 12.816 87.02 12.816H89.068V5.072C89.068 3.74933 90.348 2.68266 92.908 1.872C95.5107 1.06133 98.0493 0.655998 100.524 0.655998C104.407 0.655998 106.348 1.616 106.348 3.536V12.816H111.084C112.193 12.816 112.748 14.416 112.748 17.616C112.748 19.7067 112.492 21.4347 111.98 22.8C111.511 24.1227 110.892 24.784 110.124 24.784H106.348V36.496C106.348 37.648 106.839 38.48 107.82 38.992C108.801 39.4613 109.655 39.696 110.38 39.696C111.148 39.696 111.617 40.0587 111.788 40.784C111.959 41.5093 112.044 42.5973 112.044 44.048C112.044 46.9067 111.66 48.6987 110.892 49.424ZM130.823 50.512C129.372 50.512 128.028 50.3627 126.791 50.064C125.554 49.7653 124.252 49.1467 122.887 48.208C121.564 47.2267 120.434 45.9467 119.495 44.368C117.362 40.784 116.295 35.3867 116.295 28.176C116.295 24.208 116.828 20.7093 117.895 17.68C118.962 14.6507 120.306 12.304 121.927 10.64C123.548 8.93333 125.49 7.54667 127.751 6.48C130.012 5.41333 132.124 4.73066 134.087 4.432C136.05 4.09067 138.14 3.92 140.359 3.92C145.479 3.92 149.084 4.368 151.175 5.264C153.266 6.11733 154.311 7.78133 154.311 10.256C154.311 12.2187 153.948 14.352 153.223 16.656C152.498 18.9173 151.431 20.048 150.023 20.048C149.682 20.048 148.231 19.728 145.671 19.088C143.111 18.4053 141.191 18.064 139.911 18.064C136.242 18.064 134.407 21.1573 134.407 27.344C134.407 30.4587 134.834 32.784 135.687 34.32C136.54 35.8133 137.607 36.6453 138.887 36.816V31.056C138.887 29.9893 139.975 29.008 142.151 28.112C144.327 27.216 146.418 26.768 148.423 26.768C150.428 26.768 151.879 26.896 152.775 27.152C153.714 27.408 154.354 27.7707 154.695 28.24C155.292 29.008 155.591 29.6907 155.591 30.288V48.016C155.591 48.5707 154.46 49.0187 152.199 49.36C149.98 49.7013 147.655 49.872 145.223 49.872C142.834 49.872 141.319 49.7653 140.679 49.552C140.039 49.296 139.676 48.6347 139.591 47.568L139.143 43.792H138.631C138.332 45.6267 137.564 47.2053 136.327 48.528C135.132 49.8507 133.298 50.512 130.823 50.512ZM171.9 50.576C168.017 50.576 164.967 49.6587 162.748 47.824C161.852 47.056 161.063 45.9253 160.38 44.432C159.74 42.9387 159.42 41.1893 159.42 39.184C159.42 37.1787 159.889 35.4293 160.828 33.936C161.809 32.4427 162.983 31.2907 164.348 30.48C165.713 29.6693 167.313 29.008 169.148 28.496C171.921 27.7707 174.972 27.408 178.3 27.408H180.412C180.412 25.6587 179.815 24.4213 178.62 23.696C178.108 23.3973 177.319 23.248 176.252 23.248C175.228 23.248 173.969 23.5253 172.476 24.08C171.025 24.6347 169.809 25.2107 168.828 25.808C167.847 26.3627 167.185 26.64 166.844 26.64C166.076 26.64 165.031 25.6373 163.708 23.632C162.385 21.584 161.724 19.728 161.724 18.064C161.724 17.5093 162.513 16.784 164.092 15.888C165.671 14.992 167.889 14.1813 170.748 13.456C173.649 12.688 176.465 12.304 179.196 12.304C181.927 12.304 184.273 12.5387 186.236 13.008C188.241 13.4347 189.863 13.968 191.1 14.608C192.38 15.248 193.447 16.1013 194.3 17.168C195.196 18.2347 195.857 19.1947 196.284 20.048C196.753 20.9013 197.095 22.0107 197.308 23.376C197.607 24.9547 197.756 26.896 197.756 29.2V48.464C197.756 48.9333 196.604 49.3173 194.3 49.616C192.039 49.872 189.777 50 187.516 50C185.297 50 183.847 49.936 183.164 49.808C182.524 49.68 182.14 49.5307 182.012 49.36C181.884 49.1893 181.777 48.8907 181.692 48.464L181.18 44.816H180.668C179.601 48.656 176.679 50.576 171.9 50.576ZM180.476 39.952V32.464C179.367 32.464 178.471 32.9333 177.788 33.872C177.105 34.8107 176.764 35.8773 176.764 37.072C176.764 39.888 177.404 41.296 178.684 41.296C179.239 41.296 179.665 41.168 179.964 40.912C180.305 40.6133 180.476 40.2933 180.476 39.952ZM219.52 3.024V48.464C219.52 48.9333 218.304 49.3173 215.872 49.616C213.44 49.872 210.923 50 208.32 50C205.76 50 204.096 49.8933 203.328 49.68C202.603 49.424 202.24 49.0187 202.24 48.464V4.176C202.24 3.23733 203.435 2.32 205.824 1.424C208.256 0.527997 210.859 0.079998 213.632 0.079998C217.557 0.079998 219.52 1.06133 219.52 3.024ZM241.27 3.024V48.464C241.27 48.9333 240.054 49.3173 237.622 49.616C235.19 49.872 232.673 50 230.07 50C227.51 50 225.846 49.8933 225.078 49.68C224.353 49.424 223.99 49.0187 223.99 48.464V4.176C223.99 3.23733 225.185 2.32 227.574 1.424C230.006 0.527997 232.609 0.079998 235.382 0.079998C239.307 0.079998 241.27 1.06133 241.27 3.024ZM262.572 35.536C262.572 38.3093 263.895 39.696 266.54 39.696C268.076 39.696 270.081 39.184 272.556 38.16C275.031 37.0933 276.332 36.56 276.46 36.56C277.271 36.56 278.337 37.776 279.66 40.208C280.983 42.64 281.644 44.432 281.644 45.584C281.644 47.248 279.937 48.5067 276.524 49.36C273.111 50.2133 269.761 50.64 266.476 50.64C263.233 50.64 260.503 50.384 258.284 49.872C256.108 49.36 254.316 48.72 252.908 47.952C251.543 47.1413 250.327 46.16 249.26 45.008C248.236 43.856 247.468 42.768 246.956 41.744C246.444 40.6773 246.039 39.504 245.74 38.224C245.313 36.3467 245.1 34.4053 245.1 32.4C245.1 24.6347 247.127 19.28 251.18 16.336C253.185 14.8427 255.425 13.7973 257.9 13.2C260.375 12.6027 263.297 12.304 266.668 12.304C277.463 12.304 282.86 16.0587 282.86 23.568C282.86 31.5467 276.801 35.536 264.684 35.536H262.572ZM262.444 26.192V30.416C263.681 30.416 264.684 29.9253 265.452 28.944C266.263 27.9627 266.668 26.768 266.668 25.36C266.668 22.8 266.007 21.52 264.684 21.52C263.191 21.52 262.444 23.0773 262.444 26.192ZM303.958 29.776V48.464C303.958 48.9333 302.742 49.3173 300.31 49.616C297.92 49.872 295.424 50 292.822 50C290.262 50 288.598 49.8933 287.83 49.68C287.062 49.424 286.678 49.0187 286.678 48.464V16.912C286.678 16.1013 287.851 15.2267 290.198 14.288C292.587 13.3493 295.168 12.88 297.942 12.88C300.758 12.88 302.336 13.648 302.678 15.184L303.318 18.128H303.766C304.363 16.5067 305.792 15.1413 308.054 14.032C310.315 12.88 312.576 12.304 314.838 12.304C317.099 12.304 318.678 12.6667 319.574 13.392C320.512 14.1173 320.982 15.056 320.982 16.208C320.982 17.3173 320.896 18.7467 320.726 20.496C320.555 22.2453 320.128 24.144 319.446 26.192C318.806 28.24 317.952 29.264 316.886 29.264C316.459 29.264 315.115 28.944 312.854 28.304C310.592 27.664 308.715 27.344 307.222 27.344C305.771 27.344 304.854 27.5573 304.47 27.984C304.128 28.4107 303.958 29.008 303.958 29.776ZM345.746 45.84V42.064H345.234C345.02 42.2773 344.7 42.5547 344.274 42.896C343.847 43.2373 342.844 43.6853 341.266 44.24C339.687 44.7947 337.916 45.072 335.954 45.072C334.034 45.072 332.327 44.7733 330.834 44.176C329.383 43.536 328.231 42.704 327.378 41.68C326.524 40.6133 325.863 39.2053 325.394 37.456C324.583 34.6827 324.178 30.7573 324.178 25.68V16.848C324.178 15.952 325.436 15.0773 327.954 14.224C330.471 13.328 333.116 12.88 335.89 12.88C339.602 12.88 341.458 13.84 341.458 15.76V23.824C341.458 32.3573 342.14 36.624 343.506 36.624C344.316 36.624 344.722 36.048 344.722 34.896V16.848C344.722 15.952 346.066 15.0773 348.754 14.224C351.442 13.328 354.322 12.88 357.394 12.88C360.466 12.88 362.002 13.712 362.002 15.376V45.648C362.002 55.1627 355.559 59.92 342.674 59.92C335.89 59.92 331.282 59.2587 328.85 57.936C327.783 57.3387 327.25 56.72 327.25 56.08C327.25 55.056 327.676 53.328 328.53 50.896C329.383 48.5067 330.172 47.312 330.898 47.312C331.068 47.312 331.666 47.44 332.69 47.696C335.847 48.5493 338.471 48.976 340.562 48.976C342.695 48.976 344.082 48.7413 344.722 48.272C345.404 47.8027 345.746 46.992 345.746 45.84Z" fill="white"/>
</svg>
